<?xml version="1.0" standalone="no"?>
<!DOCTYPE svg PUBLIC "-//W3C//DTD SVG 20010904//EN"
 "http://www.w3.org/TR/2001/REC-SVG-20010904/DTD/svg10.dtd">
<svg version="1.0" xmlns="http://www.w3.org/2000/svg"
 width="207.000000pt" height="92.000000pt" viewBox="0 0 207.000000 92.000000"
 preserveAspectRatio="xMidYMid meet">

<g transform="translate(0.000000,92.000000) scale(0.100000,-0.100000)"
fill="#000000" stroke="none">
<path d="M378 710 c-2 -74 0 -100 9 -100 21 0 83 -33 83 -44 0 -6 5 -4 10 4
23 36 6 147 -30 196 -13 19 -50 44 -64 44 -2 0 -6 -45 -8 -100z"/>
<path d="M1585 717 c-3 -7 -4 -123 -3 -257 l3 -245 23 -3 c22 -3 22 -2 22 122
0 105 2 126 15 126 10 0 15 11 15 35 0 24 -5 35 -15 35 -12 0 -15 18 -15 100
0 94 -1 100 -20 100 -11 0 -23 -6 -25 -13z"/>
<path d="M877 713 c-4 -3 -7 -28 -7 -55 l0 -48 -35 0 c-34 0 -35 -1 -35 -40 0
-39 1 -40 35 -40 l36 0 -3 -132 -3 -133 -77 -3 c-58 -2 -78 0 -79 10 0 7 -1
29 -2 48 -2 28 -6 35 -22 35 -18 0 -20 -8 -23 -77 l-3 -78 126 0 125 0 0 260
c0 210 -3 260 -13 260 -8 0 -17 -3 -20 -7z"/>
<path d="M1185 698 c-3 -13 -4 -75 -3 -138 3 -107 4 -115 23 -115 17 0 20 8
23 48 2 33 7 47 18 47 9 0 14 11 14 35 0 24 -5 35 -14 35 -11 0 -16 15 -18 52
-2 40 -7 54 -20 56 -11 2 -19 -5 -23 -20z"/>
<path d="M1858 460 c-3 -236 -2 -259 14 -263 9 -3 19 -2 22 1 3 3 6 63 6 134
0 107 2 128 15 128 13 0 15 -21 15 -128 0 -71 3 -131 6 -134 3 -3 14 -4 24 -1
18 5 19 19 19 252 1 135 -2 251 -6 256 -5 6 -15 11 -23 10 -12 0 -16 -18 -18
-92 -2 -73 -6 -93 -17 -93 -11 0 -15 20 -17 92 -3 77 -6 92 -20 94 -16 2 -18
-19 -20 -256z"/>
<path d="M644 702 c-6 -4 -10 -18 -9 -32 1 -22 7 -26 46 -30 41 -5 44 -7 43
-35 -1 -16 -3 -61 -4 -100 -3 -63 -2 -70 16 -70 15 0 20 10 25 45 6 38 12 177
10 218 -1 13 -107 17 -127 4z"/>
<path d="M964 696 c-13 -34 0 -51 41 -54 64 -4 63 -3 49 -84 -18 -100 -17
-108 6 -108 12 0 21 8 24 23 13 63 26 158 26 195 l0 42 -70 0 c-52 0 -72 -4
-76 -14z"/>
<path d="M1697 703 c-4 -3 -7 -19 -7 -35 0 -26 3 -28 39 -28 22 0 42 -3 44 -7
3 -5 -3 -98 -14 -208 -10 -110 -18 -206 -19 -212 0 -7 10 -13 23 -13 22 0 23
3 40 208 10 114 17 228 17 255 l0 47 -58 0 c-32 0 -62 -3 -65 -7z"/>
<path d="M1400 656 c0 -34 -1 -35 -47 -38 -48 -3 -48 -3 -48 -38 0 -21 5 -36
13 -36 24 -3 26 -4 14 -16 -13 -13 -14 -114 -2 -163 l8 -30 1 30 c1 27 35 122
54 153 5 6 21 12 36 12 34 0 43 -10 65 -75 29 -82 30 -101 7 -148 -40 -82
-100 -86 -140 -10 -11 21 -20 32 -21 25 -1 -38 57 -102 93 -102 25 0 74 60 88
107 16 54 19 178 5 207 -8 16 -6 18 7 13 14 -5 17 0 17 33 l0 40 -45 0 c-45 0
-45 0 -45 35 0 32 -2 35 -30 35 -28 0 -30 -3 -30 -34z"/>
<path d="M112 578 c-16 -16 -17 -317 0 -353 21 -46 103 -26 146 36 15 23 15
23 -1 10 -16 -13 -17 -4 -17 119 0 117 2 131 15 120 34 -28 12 10 -25 44 -42
38 -94 48 -118 24z"/>
<path d="M514 502 c22 -43 22 -244 1 -286 -14 -26 -14 -27 1 -16 34 29 48 74
48 155 0 63 -5 89 -22 122 -12 23 -27 45 -33 48 -6 4 -4 -7 5 -23z"/>
<path d="M994 345 c-7 -19 -14 -44 -14 -55 0 -11 7 -36 14 -55 l15 -35 95 0
c87 0 96 2 110 22 9 12 16 43 16 68 0 25 -7 56 -16 68 -14 20 -23 22 -110 22
l-95 0 -15 -35z m191 -55 c0 -24 -2 -25 -78 -28 -81 -3 -98 6 -83 43 5 13 21
15 83 13 76 -3 78 -4 78 -28z"/>
</g>
</svg>
