<?xml version="1.0" standalone="no"?>
<!DOCTYPE svg PUBLIC "-//W3C//DTD SVG 20010904//EN"
 "http://www.w3.org/TR/2001/REC-SVG-20010904/DTD/svg10.dtd">
<svg version="1.0" xmlns="http://www.w3.org/2000/svg"
 width="556.000000pt" height="134.000000pt" viewBox="0 0 556.000000 134.000000"
 preserveAspectRatio="xMidYMid meet">

<g transform="translate(0.000000,134.000000) scale(0.100000,-0.100000)"
fill="#000000" stroke="none">
<path d="M590 980 c0 -128 0 -130 23 -130 12 0 44 -11 72 -25 27 -14 55 -23
61 -21 19 7 27 98 13 147 -24 82 -96 159 -148 159 -20 0 -21 -6 -21 -130z"/>
<path d="M170 809 c-8 -13 -10 -96 -8 -250 2 -191 6 -231 18 -239 20 -13 97
-13 105 0 3 6 15 10 25 10 11 0 27 12 37 27 15 22 18 53 19 202 1 96 -3 187
-8 202 -20 58 -163 95 -188 48z"/>
<path d="M5210 805 c0 -11 -11 -15 -40 -15 -33 0 -40 -3 -40 -20 0 -13 7 -20
20 -20 24 0 25 -8 5 -34 -22 -29 -18 -61 9 -93 34 -39 98 -39 132 0 28 33 30
51 9 91 -19 36 -19 36 5 36 13 0 20 7 20 20 0 17 -7 20 -40 20 -29 0 -40 4
-40 15 0 8 -9 15 -20 15 -11 0 -20 -7 -20 -15z m48 -107 c32 -32 -8 -80 -48
-58 -34 18 -19 70 20 70 9 0 21 -5 28 -12z"/>
<path d="M1143 776 l-28 -24 0 -132 0 -132 34 -30 c28 -25 39 -29 69 -24 19 3
45 15 58 27 23 21 24 29 24 156 0 132 0 134 -26 158 -36 34 -93 34 -131 1z
m95 -38 c8 -8 12 -50 12 -125 0 -111 -1 -114 -25 -125 -46 -21 -55 0 -55 132
0 85 3 120 13 123 22 9 43 7 55 -5z"/>
<path d="M1370 615 l0 -185 25 0 c25 0 25 1 25 85 0 78 2 85 20 85 15 0 20 7
20 25 0 18 -5 25 -20 25 -18 0 -20 7 -20 75 0 73 -1 75 -25 75 l-25 0 0 -185z"/>
<path d="M1534 785 c-37 -25 -46 -66 -42 -185 l3 -112 34 -30 c30 -27 39 -30
79 -25 77 9 86 26 90 176 3 126 3 128 -23 159 -23 28 -33 32 -74 32 -25 0 -56
-7 -67 -15z m106 -54 c5 -11 10 -64 10 -119 0 -87 -3 -101 -20 -117 -16 -15
-26 -17 -48 -9 l-27 9 -3 119 c-3 129 0 136 50 136 17 0 31 -7 38 -19z"/>
<path d="M1750 615 l0 -185 30 0 30 0 0 185 0 185 -30 0 -30 0 0 -185z"/>
<path d="M1883 763 c-9 -21 -18 -76 -21 -123 -3 -70 0 -95 18 -142 18 -49 25
-58 46 -58 29 0 29 -3 3 56 -29 65 -30 179 -1 252 l20 52 -24 0 c-19 0 -29 -9
-41 -37z"/>
<path d="M2121 748 c25 -73 25 -183 -1 -250 -11 -29 -20 -54 -20 -55 0 -2 11
-3 24 -3 37 0 61 72 61 180 0 106 -24 180 -59 180 l-23 0 18 -52z"/>
<path d="M2250 780 c0 -16 8 -19 63 -22 l62 -3 0 -55 0 -55 -62 -3 -63 -3 0
-99 0 -100 90 0 c83 0 90 1 90 20 0 18 -7 20 -65 20 l-65 0 0 55 0 55 60 0 60
0 0 105 0 105 -85 0 c-78 0 -85 -2 -85 -20z"/>
<path d="M2510 740 c0 -57 -1 -60 -25 -60 -20 0 -25 -5 -25 -25 0 -20 5 -25
25 -25 l25 0 0 -100 0 -100 25 0 25 0 0 185 0 185 -25 0 c-24 0 -25 -3 -25
-60z"/>
<path d="M2630 685 l0 -115 150 0 150 0 0 115 0 115 -25 0 c-23 0 -25 -4 -25
-40 l0 -41 -97 3 -98 3 -3 38 c-3 32 -7 37 -28 37 l-24 0 0 -115z m250 -40 c0
-25 0 -25 -95 -25 -95 0 -95 0 -95 25 0 25 0 25 95 25 95 0 95 0 95 -25z"/>
<path d="M3013 763 c-9 -21 -18 -76 -21 -123 -3 -70 0 -95 18 -142 18 -49 25
-58 46 -58 29 0 29 -3 3 56 -29 65 -30 179 -1 252 l20 52 -24 0 c-19 0 -29 -9
-41 -37z"/>
<path d="M4251 748 c25 -73 25 -183 -1 -250 -11 -29 -20 -54 -20 -55 0 -2 11
-3 24 -3 37 0 61 72 61 180 0 106 -24 180 -59 180 l-23 0 18 -52z"/>
<path d="M4360 781 c0 -11 5 -23 10 -26 6 -3 10 -28 10 -56 0 -27 -4 -49 -10
-49 -5 0 -10 -11 -10 -25 0 -25 1 -25 80 -25 79 0 80 0 80 25 0 14 -4 25 -10
25 -5 0 -10 22 -10 49 0 28 5 53 10 56 6 3 10 15 10 26 0 17 -7 19 -80 19 -73
0 -80 -2 -80 -19z m90 -81 c0 -27 -4 -50 -10 -50 -5 0 -10 23 -10 50 0 28 5
50 10 50 6 0 10 -22 10 -50z"/>
<path d="M4550 760 c0 -22 -4 -40 -10 -40 -5 0 -10 -9 -10 -20 0 -11 5 -20 10
-20 6 0 10 -20 10 -45 0 -41 2 -45 25 -45 l25 0 0 105 0 105 -25 0 c-22 0 -25
-4 -25 -40z"/>
<path d="M4630 675 l0 -125 25 0 25 0 0 125 0 125 -25 0 -25 0 0 -125z"/>
<path d="M4750 685 l0 -115 65 0 65 0 0 -45 0 -45 -75 0 c-73 0 -75 -1 -75
-25 l0 -25 170 0 170 0 0 25 c0 24 -2 25 -70 25 l-70 0 0 45 0 45 60 0 60 0 0
115 0 115 -25 0 c-23 0 -25 -4 -25 -40 l0 -41 -97 3 -98 3 -3 38 c-3 32 -7 37
-28 37 l-24 0 0 -115z m250 -40 c0 -25 0 -25 -95 -25 -95 0 -95 0 -95 25 0 25
0 25 95 25 95 0 95 0 95 -25z"/>
<path d="M5390 750 c0 -47 -2 -50 -25 -50 -20 0 -25 -5 -25 -25 0 -20 5 -25
25 -25 23 0 25 -4 25 -45 l0 -45 -120 0 -120 0 0 -65 0 -65 150 0 150 0 0 185
0 185 -30 0 c-29 0 -30 -1 -30 -50z m0 -255 c0 -12 -17 -15 -95 -15 -78 0 -95
3 -95 15 0 12 17 15 95 15 78 0 95 -3 95 -15z"/>
<path d="M2000 610 l0 -170 30 0 30 0 0 170 0 170 -30 0 -30 0 0 -170z"/>
<path d="M3120 610 l0 -170 120 0 120 0 0 25 c0 24 -2 24 -92 27 l-93 3 -3
143 -3 142 -24 0 -25 0 0 -170z"/>
<path d="M3455 771 c-51 -22 -60 -46 -60 -162 0 -105 1 -109 28 -136 24 -24
35 -28 88 -28 54 0 63 3 85 28 22 26 24 36 24 137 0 99 -2 111 -22 135 -18 19
-35 27 -73 30 -27 3 -59 1 -70 -4z m103 -63 c7 -7 12 -44 12 -98 0 -54 -5 -91
-12 -98 -16 -16 -80 -16 -96 0 -16 16 -16 180 0 196 16 16 80 16 96 0z"/>
<path d="M3670 775 c0 -3 19 -80 41 -171 l42 -165 31 3 30 3 38 155 c20 85 37
161 38 168 0 6 -11 12 -24 12 -22 0 -26 -8 -51 -111 -15 -61 -31 -107 -35
-102 -3 4 -14 35 -22 68 -9 33 -21 79 -28 103 -9 35 -15 42 -35 42 -14 0 -25
-2 -25 -5z"/>
<path d="M3950 610 l0 -170 115 0 115 0 0 25 c0 25 -1 25 -85 25 l-85 0 0 50
0 50 85 0 c78 0 85 2 85 20 0 18 -7 20 -85 20 l-85 0 0 50 0 50 85 0 c84 0 85
0 85 25 l0 25 -115 0 -115 0 0 -170z"/>
<path d="M825 520 l0 -171 22 27 c54 68 53 221 -2 290 l-20 25 0 -171z"/>
<path d="M4450 495 l-64 -65 34 0 c27 0 43 9 75 40 l41 40 39 -40 c31 -32 46
-40 74 -40 l35 0 -64 65 c-38 38 -73 65 -85 65 -12 0 -47 -27 -85 -65z"/>
<path d="M2610 455 l0 -25 170 0 170 0 0 25 0 25 -170 0 -170 0 0 -25z"/>
</g>
</svg>
